HIERARCHY
ROOT Hips
{
	OFFSET 0.00000 0.00000 0.00000
	CHANNELS 6 Xposition Yposition Zposition Zrotation Yrotation Xrotation 
	JOINT LHipJoint
	{
		OFFSET 0 0 0
		CHANNELS 3 Zrotation Yrotation Xrotation
		JOINT LeftUpLeg
		{
			OFFSET 1.62964 -1.40469 0.78906
			CHANNELS 3 Zrotation Yrotation Xrotation
			JOINT LeftLeg
			{
				OFFSET 2.29640 -6.30932 0.00000
				CHANNELS 3 Zrotation Yrotation Xrotation
				JOINT LeftFoot
				{
					OFFSET 2.29451 -6.30412 0.00000
					CHANNELS 3 Zrotation Yrotation Xrotation
					JOINT LeftToeBase
					{
						OFFSET 0.03611 -0.09921 1.56387
						CHANNELS 3 Zrotation Yrotation Xrotation
						End Site
						{
							OFFSET 0.00000 -0.00000 0.80291
						}
					}
				}
			}
		}
	}
	JOINT RHipJoint
	{
		OFFSET 0 0 0
		CHANNELS 3 Zrotation Yrotation Xrotation
		JOINT RightUpLeg
		{
			OFFSET -1.73712 -1.40469 0.78906
			CHANNELS 3 Zrotation Yrotation Xrotation
			JOINT RightLeg
			{
				OFFSET -2.28137 -6.26801 0.00000
				CHANNELS 3 Zrotation Yrotation Xrotation
				JOINT RightFoot
				{
					OFFSET -2.28681 -6.28298 0.00000
					CHANNELS 3 Zrotation Yrotation Xrotation
					JOINT RightToeBase
					{
						OFFSET -0.15927 -0.43759 1.61103
						CHANNELS 3 Zrotation Yrotation Xrotation
						End Site
						{
							OFFSET -0.00000 -0.00000 0.84630
						}
					}
				}
			}
		}
	}
	JOINT LowerBack
	{
		OFFSET 0 0 0
		CHANNELS 3 Zrotation Yrotation Xrotation
		JOINT Spine
		{
			OFFSET -0.04227 2.04338 -0.00225
			CHANNELS 3 Zrotation Yrotation Xrotation
			JOINT Spine1
			{
				OFFSET -0.02148 2.04482 -0.04273
				CHANNELS 3 Zrotation Yrotation Xrotation
				JOINT Neck
				{
					OFFSET 0 0 0
					CHANNELS 3 Zrotation Yrotation Xrotation
					JOINT Neck1
					{
						OFFSET 0.09180 1.44629 0.19359
						CHANNELS 3 Zrotation Yrotation Xrotation
						JOINT Head
						{
							OFFSET 0.00887 1.40645 0.14750
							CHANNELS 3 Zrotation Yrotation Xrotation
							End Site
							{
								OFFSET -0.00669 1.50671 0.03707
							}
						}
					}
				}
				JOINT LeftShoulder
				{
					OFFSET 0 0 0
					CHANNELS 3 Zrotation Yrotation Xrotation
					JOINT LeftArm
					{
						OFFSET 2.17674 1.86763 -0.06520
						CHANNELS 3 Zrotation Yrotation Xrotation
						JOINT LeftForeArm
						{
							OFFSET 4.65776 -0.00000 0.00000
							CHANNELS 3 Zrotation Yrotation Xrotation
							JOINT LeftHand
							{
								OFFSET 3.55539 -0.00000 0.00000
								CHANNELS 3 Zrotation Yrotation Xrotation
								JOINT LeftFingerBase
								{
									OFFSET 0 0 0
									CHANNELS 3 Zrotation Yrotation Xrotation
									JOINT LeftHandIndex1
									{
										OFFSET 0.70726 -0.00000 0.00000
										CHANNELS 3 Zrotation Yrotation Xrotation
										End Site
										{
											OFFSET 0.57022 -0.00000 0.00000
										}
									}
								}
								JOINT LThumb
								{
									OFFSET 0 0 0
									CHANNELS 3 Zrotation Yrotation Xrotation
									End Site
									{
										OFFSET 0.57892 -0.00000 0.57892
									}
								}
							}
						}
					}
				}
				JOINT RightShoulder
				{
					OFFSET 0 0 0
					CHANNELS 3 Zrotation Yrotation Xrotation
					JOINT RightArm
					{
						OFFSET -2.80694 1.55459 -0.32496
						CHANNELS 3 Zrotation Yrotation Xrotation
						JOINT RightForeArm
						{
							OFFSET -4.71925 -0.00000 -0.00000
							CHANNELS 3 Zrotation Yrotation Xrotation
							JOINT RightHand
							{
								OFFSET -3.56990 -0.00000 0.00000
								CHANNELS 3 Zrotation Yrotation Xrotation
								JOINT RightFingerBase
								{
									OFFSET 0 0 0
									CHANNELS 3 Zrotation Yrotation Xrotation
									JOINT RightHandIndex1
									{
										OFFSET -0.50776 -0.00000 0.00000
										CHANNELS 3 Zrotation Yrotation Xrotation
										End Site
										{
											OFFSET -0.40937 -0.00000 0.00000
										}
									}
								}
								JOINT RThumb
								{
									OFFSET 0 0 0
									CHANNELS 3 Zrotation Yrotation Xrotation
									End Site
									{
										OFFSET -0.41562 -0.00000 0.41562
									}
								}
							}
						}
					}
				}
			}
		}
	}
}
MOTION
Frames: 6
Frame Time: .0083333
2.3910 17.9713 18.6383 -178.7480 0.5384 -145.6540 0.0000 0.0000 0.0000 -0.3677 -20.0506 -30.9610 0.9378 6.1682 17.2734 -0.0107 19.1189 13.3573 3.5767 -11.5748 -34.2439 0.0000 0.0000 0.0000 7.4774 21.9253 -57.5120 -3.7148 -11.7709 34.9262 -1.0854 2.1722 -19.0863 -1.4552 7.6248 -21.5801 0.7273 -0.2849 -18.6161 1.5639 -0.6586 1.6048 1.1397 -0.2922 12.3061 0.9016 -4.2575 -3.2075 0.7526 -4.8542 20.0385 -0.1762 -1.7633 6.6107 0.0000 -0.0000 0.0000 -80.7120 0.0278 25.9381 20.6165 -31.3780 -5.8490 -0.0000 0.0000 -1.5757 22.9903 -13.8658 -5.8057 -7.1250 0.0000 -0.0000 -3.0254 14.9841 2.1433 0.0000 -0.0000 0.0000 82.1170 -3.2487 13.9069 -30.2841 41.1357 -11.5961 0.0000 -0.0000 -7.1934 -14.2788 -53.0626 11.4984 7.1250 -0.0000 -0.0000 66.1316 -76.6268 -53.0452
2.4360 18.0366 18.6077 -179.3280 0.4190 -146.2280 0.0000 0.0000 0.0000 -1.2723 -20.2587 -30.9218 1.0541 6.5284 18.3255 0.2418 16.4808 13.8822 4.4939 -12.7902 -38.5880 0.0000 0.0000 0.0000 7.6880 21.1783 -55.8977 -3.4226 -11.3497 33.4684 -1.0317 2.0406 -18.6224 -1.5603 7.8828 -22.3587 0.1343 -0.4394 -17.9928 1.4897 -0.7338 1.7364 1.3724 -0.3717 12.1013 0.8533 -4.2712 -3.2600 0.7581 -4.8537 20.1977 -0.1680 -1.7570 6.6725 0.0000 0.0000 0.0000 -80.7071 0.3032 25.9770 20.6389 -31.4045 -5.8607 -0.0000 0.0000 -1.8117 22.9136 -13.9933 -5.8360 -7.1250 0.0000 -0.0000 -3.0850 14.8559 2.1941 0.0000 0.0000 0.0000 82.0096 -3.2113 13.9454 -30.4446 41.2714 -11.7018 0.0000 -0.0000 -7.1835 -14.5527 -52.7597 11.6768 7.1250 -0.0000 -0.0000 64.7840 -76.6440 -51.8335
2.4801 18.1017 18.5771 -179.9550 0.2453 -146.7970 0.0000 0.0000 0.0000 -2.1852 -20.6990 -30.8827 1.1991 6.9478 19.5610 0.2542 14.2677 12.7540 3.8786 -11.9971 -35.7216 0.0000 0.0000 0.0000 7.7377 20.5044 -54.2505 -3.1292 -10.9014 31.9481 -0.9865 1.7945 -18.2545 -1.5553 7.8708 -22.3225 -0.4538 -0.5815 -17.3846 1.3610 -0.7950 1.8803 1.5475 -0.4415 11.9184 0.8243 -4.3485 -3.2430 0.9449 -4.9872 20.1999 -0.1120 -1.8071 6.6764 -0.0000 -0.0000 0.0000 -80.6037 0.4478 26.0282 20.5996 -31.3579 -5.8402 -0.0000 0.0000 -2.0233 22.7978 -13.6289 -5.6561 -7.1250 0.0000 -0.0000 -3.1441 15.2596 2.2091 -0.0000 -0.0000 0.0000 82.0449 -3.1394 13.8490 -30.6371 41.4333 -11.8290 0.0000 -0.0000 -7.1486 -14.5753 -52.8048 11.7021 7.1250 -0.0000 -0.0000 64.9583 -76.6666 -52.0160
2.5228 18.1655 18.5615 -181.0630 0.6036 -147.8320 0.0000 0.0000 0.0000 -4.0718 -21.2213 -30.2427 1.3757 7.4223 20.9726 0.1755 13.0580 11.2554 2.2340 -9.3374 -26.8565 0.0000 0.0000 0.0000 7.0621 19.9296 -52.3890 -2.8973 -10.5269 30.7003 -0.9519 1.6663 -17.9534 -1.4257 7.5504 -21.3567 -1.7231 -0.7460 -16.1328 1.0719 -0.7507 2.1286 1.9636 -0.5018 11.4812 0.7531 -4.3429 -3.0238 1.0763 -5.0008 19.9525 -0.0534 -1.8183 6.5643 0.0000 -0.0000 0.0000 -80.5666 0.6129 25.9045 20.5506 -31.3000 -5.8147 -0.0000 0.0000 -2.0418 22.7065 -13.2302 -5.4703 -7.1250 0.0000 -0.0000 -3.1860 15.6969 2.2087 0.0000 -0.0000 0.0000 82.0287 -3.0799 13.7602 -30.8353 41.5987 -11.9603 0.0000 -0.0000 -7.0258 -14.2498 -52.6454 11.4132 7.1250 -0.0000 -0.0000 64.4498 -76.4902 -51.3674
2.5610 18.2210 18.5565 -182.2800 1.4760 -148.8010 0.0000 0.0000 0.0000 -6.2885 -21.5139 -29.6753 1.5798 7.9298 22.5011 0.0759 12.0157 9.4449 1.7397 -8.3014 -23.6333 0.0000 0.0000 0.0000 5.9798 19.6435 -50.8404 -2.7162 -10.2208 29.6947 -0.9140 1.8031 -17.5493 -1.2519 7.0936 -19.9931 -3.3040 -0.7954 -14.8915 0.7370 -0.5133 2.3048 2.5553 -0.4780 10.9585 0.5711 -4.2911 -2.8333 1.0572 -4.8878 19.9553 -0.0177 -1.7734 6.5359 0.0000 0.0000 0.0000 -80.6098 0.9968 25.9299 20.6654 -31.4357 -5.8744 -0.0000 0.0000 -2.2201 22.2486 -13.1974 -5.3357 -7.1250 0.0000 -0.0000 -3.4996 15.7802 2.4206 0.0000 0.0000 0.0000 81.9265 -3.1474 13.7109 -31.0613 41.7859 -12.1106 0.0000 -0.0000 -6.9793 -14.1468 -52.2243 11.2672 7.1250 -0.0000 -0.0000 62.8248 -76.3111 -49.7121
2.5929 18.2723 18.5597 -183.3210 2.3437 -149.3050 0.0000 0.0000 0.0000 -8.0661 -21.8114 -29.8367 1.8420 8.5290 24.3327 -0.0664 11.5522 7.1045 1.3708 -7.4096 -20.9347 0.0000 0.0000 0.0000 4.9107 19.4814 -49.9496 -2.5616 -9.9490 28.8117 -0.8686 1.9241 -17.0664 -1.1530 6.8176 -19.1761 -4.6288 -0.7215 -14.0715 0.3978 -0.1700 2.3419 3.0168 -0.3748 10.5067 0.5158 -4.2737 -2.8782 0.9525 -4.8189 20.1375 -0.0388 -1.7410 6.6005 -0.0000 -0.0000 0.0000 -80.5215 1.2705 26.2702 20.7338 -31.5163 -5.9102 -0.0000 0.0000 -2.4648 21.7546 -13.3915 -5.2804 -7.1250 0.0000 -0.0000 -3.8483 15.6245 2.6758 -0.0000 -0.0000 0.0000 81.9146 -3.2221 13.6449 -31.3553 42.0271 -12.3070 0.0000 -0.0000 -7.2255 -14.5733 -52.5176 11.6570 7.1250 -0.0000 -0.0000 63.7924 -76.5758 -50.8621
